# xmcd
#
# Track frame offsets:
# 150
# 18004
# 32587
# 48181
# 66791
# 82795
# 99814
# 127295
# 140284
# 155184
# 178060
# 191647
# 206901
# 224397
#
# Disc length: 3172 seconds
#
#
# Revision: 0
# Processed by: cddbd v1.5.2PL0 Copyright (c) Steve Scherf et al.
# Submitted via: FreeRIP 2.951 
#
DISCID=c00c620e
DTITLE=American Music Festival
DYEAR=1999
DGENRE=Country
TTITLE0=Doug Kershaw - Canjun Stripper
TTITLE1=Wheels - Remember
TTITLE2=Chris Gaffney - Franks Tavern
TTITLE3=Matt Barnes and Jann Browne - No One Hears Me Callin
TTITLE4=Sarah Jory - Whatever Way The Wind Blows
TTITLE5=Boxcars - What Am I to You
TTITLE6=Todd Nolan and South Mountain - Orange Blossom Special
TTITLE7=Johnny Cash Revival Band - Give My Love To Rose
TTITLE8=The Lonely Boys - Gamblin Hobo Blue Yodel
TTITLE9=Tony Lewis - Make a Little Noise
TTITLE10=Lisa Colter and Velvet Rose Band - Rodeo Runner
TTITLE11=Dobro - Comin´ Home
TTITLE12=Cash on Delivery - No More You
TTITLE13=Smoky River Band - We Love Country Music
EXTD=
EXTT0=
EXTT1=
EXTT2=
EXTT3=
EXTT4=
EXTT5=
EXTT6=
EXTT7=
EXTT8=
EXTT9=
EXTT10=
EXTT11=
EXTT12=
EXTT13=
PLAYORDER=
